HIERARCHY
ROOT Hips
{
	OFFSET 0.000000 0.000000 0.000000 
	CHANNELS 6 Xposition Yposition Zposition Zrotation Yrotation Xrotation
	JOINT LeftUpLeg
	{
		OFFSET 1.363060 -1.794630 0.839290 
		CHANNELS 3 Zrotation Yrotation Xrotation
		JOINT LeftLeg
		{
			OFFSET 2.448110 -6.726130 0.000000 
			CHANNELS 3 Zrotation Yrotation Xrotation
			JOINT LeftFoot
			{
				OFFSET 2.562200 -7.039590 0.000000 
				CHANNELS 3 Zrotation Yrotation Xrotation
				JOINT LeftToeBase
				{
					OFFSET 0.157640 -0.433110 2.322550 
					CHANNELS 3 Zrotation Yrotation Xrotation
					End Site
					{
						OFFSET 0.000000 0.000000 0.000000 
					}
				}
			}
		}
	}
	JOINT RightUpLeg
	{
		OFFSET -1.305520 -1.794630 0.839290 
		CHANNELS 3 Zrotation Yrotation Xrotation
		JOINT RightLeg
		{
			OFFSET -2.542530 -6.985550 0.000000 
			CHANNELS 3 Zrotation Yrotation Xrotation
			JOINT RightFoot
			{
				OFFSET -2.568260 -7.056230 0.000000 
				CHANNELS 3 Zrotation Yrotation Xrotation
				JOINT RightToeBase
				{
					OFFSET -0.164730 -0.452590 2.363150 
					CHANNELS 3 Zrotation Yrotation Xrotation
					End Site
					{
						OFFSET 0.000000 0.000000 0.000000 
					}
				}
			}
		}
	}
	JOINT Spine
	{
		OFFSET 0.028270 2.035590 -0.193380 
		CHANNELS 3 Zrotation Yrotation Xrotation
		JOINT Spine1
		{
			OFFSET 0.056720 2.048850 -0.042750 
			CHANNELS 3 Zrotation Yrotation Xrotation
			JOINT Neck1
			{
				OFFSET -0.054170 1.746240 0.172020 
				CHANNELS 3 Zrotation Yrotation Xrotation
				JOINT Head
				{
					OFFSET 0.104070 1.761360 -0.123970 
					CHANNELS 3 Zrotation Yrotation Xrotation
					End Site
					{
						OFFSET 0.000000 0.000000 0.000000 
					}
				}
			}
			JOINT LeftArm
			{
				OFFSET 3.362410 1.200890 -0.311210 
				CHANNELS 3 Zrotation Yrotation Xrotation
				JOINT LeftForeArm
				{
					OFFSET 4.983000 -0.000000 -0.000000 
					CHANNELS 3 Zrotation Yrotation Xrotation
					JOINT LeftHand
					{
						OFFSET 3.483560 -0.000000 -0.000000 
						CHANNELS 3 Zrotation Yrotation Xrotation
						JOINT LeftHandIndex1
						{
							OFFSET 0.715260 -0.000000 -0.000000 
							CHANNELS 3 Zrotation Yrotation Xrotation
							End Site
							{
								OFFSET 0.000000 0.000000 0.000000 
							}
						}
					}
				}
			}
			JOINT RightArm
			{
				OFFSET -3.136600 1.374050 -0.404650 
				CHANNELS 3 Zrotation Yrotation Xrotation
				JOINT RightForeArm
				{
					OFFSET -5.241900 -0.000000 -0.000000 
					CHANNELS 3 Zrotation Yrotation Xrotation
					JOINT RightHand
					{
						OFFSET -3.444170 -0.000000 -0.000000 
						CHANNELS 3 Zrotation Yrotation Xrotation
						JOINT RightHandIndex1
						{
							OFFSET -0.622530 -0.000000 -0.000000 
							CHANNELS 3 Zrotation Yrotation Xrotation
							End Site
							{
								OFFSET 0.000000 0.000000 0.000000 
							}
						}
					}
				}
			}
		}
	}
}
MOTION
Frames: 17
Frame Time: 0.041667
1.150070 17.830804 1.187994 -2.669011 -46.240901 -0.611513 -10.796459 -5.701141 -20.572887 2.453666 9.817801 32.007556 -1.913897 8.054783 -0.849289 0.046400 -1.390800 -3.824700 18.678090 9.370522 3.438366 -5.457159 -10.695619 40.365723 2.267166 -9.063726 1.156575 -1.537300 7.827300 -22.190700 -0.772420 0.592483 11.844912 2.934386 0.834643 -4.987032 -1.630155 0.185197 12.780544 1.811700 -0.305700 4.249800 -30.918330 -30.618631 55.986215 34.652642 -43.159686 -16.058795 0.516933 -1.207093 -5.171473 -7.125000 0.000000 0.000000 61.685262 6.040781 25.390753 -6.481123 6.274062 -0.541426 0.821384 -1.264507 38.209390 7.125000 0.000000 0.000000 
1.122356 17.849863 1.278526 -2.801206 -45.645225 -0.971097 -10.880195 -5.365615 -19.893017 2.389024 9.718473 31.730396 -1.812240 7.688327 -0.444634 0.060900 -1.591800 -4.378900 18.611330 9.232308 3.839852 -5.568232 -10.803711 40.699533 2.312797 -9.299410 2.812613 -1.464400 7.647700 -21.649100 -0.775145 0.542348 11.673876 2.866299 0.814506 -4.655931 -1.687921 0.298887 14.475593 1.644100 -0.304100 4.202100 -28.915398 -32.018978 54.711419 33.080332 -42.003651 -14.853787 0.480247 -1.256765 -5.018351 -7.125000 0.000000 0.000000 60.252126 8.344439 26.473527 -6.883109 6.938324 -0.643382 0.875218 -1.298203 36.609626 7.125000 0.000000 0.000000 
1.095615 17.872520 1.368863 -2.828880 -45.299828 -1.352421 -11.032520 -5.054977 -19.139426 2.313726 9.601499 31.401485 -1.766272 7.518691 -0.272563 0.089300 -1.927400 -5.305100 18.374252 9.258225 4.144053 -5.675804 -10.923501 41.018335 2.347328 -9.573233 4.485521 -1.397100 7.477600 -21.138200 -0.630351 0.507808 11.311047 2.823934 0.807270 -4.396361 -2.074328 0.534459 16.092374 1.588800 -0.280500 4.559500 -26.997268 -33.109914 53.210274 31.640133 -40.908822 -13.788645 0.453141 -1.296754 -4.621999 -7.125000 0.000000 0.000000 58.641748 10.515543 27.673799 -7.378231 7.755283 -0.768626 0.907976 -1.271713 34.744973 7.125000 0.000000 0.000000 
1.071499 17.895955 1.456380 -2.912762 -45.042293 -1.664862 -11.110276 -4.846482 -18.323731 2.215294 9.457769 30.977080 -1.729475 7.385921 -0.308122 0.120200 -2.234600 -6.154600 18.133283 9.273181 4.325600 -5.797795 -11.053245 41.365071 2.377121 -9.923054 6.282128 -1.360700 7.383400 -20.856200 -0.546285 0.524368 10.945106 2.711730 0.818255 -4.161602 -2.402218 0.775419 17.616604 1.536100 -0.248700 4.900900 -24.946590 -34.157255 51.336039 30.266111 -39.826031 -12.805125 0.426905 -1.322947 -3.940443 -7.125000 0.000000 0.000000 56.989735 12.554918 29.005315 -8.023592 8.792977 -0.938204 0.944924 -1.217780 32.401546 7.125000 0.000000 0.000000 
1.047870 17.918904 1.543994 -3.103162 -44.815239 -1.998447 -11.071208 -4.798998 -17.304755 2.089761 9.272487 30.417892 -1.718923 7.341366 -0.428718 0.122100 -2.253100 -6.205600 18.017896 9.319502 4.586373 -5.943410 -11.197107 41.804384 2.323933 -10.094628 8.257154 -1.272200 7.148900 -20.157200 -0.680299 0.567825 10.833097 2.518302 0.831409 -3.920333 -2.739883 1.043847 18.954850 1.442900 -0.188200 5.207700 -22.586451 -35.213636 49.081389 29.073497 -38.846389 -11.963032 0.383404 -1.355281 -3.225176 -7.125000 0.000000 0.000000 55.342367 14.644968 30.409885 -8.820972 10.027470 -1.152895 1.018799 -1.080051 29.646309 7.125000 0.000000 0.000000 
1.021906 17.945257 1.634331 -3.254087 -44.672871 -2.312338 -11.060942 -4.904392 -16.187718 1.942925 9.048113 29.743908 -1.750993 7.437628 -0.571098 0.099100 -2.030600 -5.590100 17.886386 9.521771 4.807912 -6.103579 -11.362857 42.322098 2.192151 -10.099799 10.309376 -1.125500 6.738600 -18.943400 -0.623844 0.641272 10.662272 2.370504 0.864714 -3.645387 -3.112070 1.284317 20.137498 1.349900 -0.146200 5.468700 -20.548706 -36.131756 46.461310 27.995085 -37.929424 -11.223964 0.351904 -1.378030 -2.014848 -7.125000 0.000000 0.000000 53.501471 16.655688 31.298487 -9.657013 11.305593 -1.401089 1.101993 -0.956121 27.443792 7.125000 0.000000 0.000000 
0.997013 17.969567 1.720584 -2.912610 -44.565168 -2.870696 -11.433430 -5.066597 -15.084276 1.790503 8.794497 29.034748 -1.822097 7.665580 -0.906267 0.067200 -1.672500 -4.601400 17.321915 9.759550 4.786501 -6.288065 -11.575620 42.906933 2.029081 -10.212355 12.683548 -0.930100 6.143600 -17.201700 -0.515428 0.741244 10.306893 2.452588 0.922019 -3.441349 -3.512437 1.539887 21.489287 1.277300 -0.117500 5.782100 -18.885000 -36.951391 43.449878 26.871971 -36.953213 -10.481223 0.314315 -1.380331 -0.584192 -7.125000 0.000000 0.000000 51.409353 18.469353 31.842593 -10.583595 12.731379 -1.709248 1.147212 -0.859170 25.149443 7.125000 0.000000 0.000000 
0.974064 17.994169 1.805961 -2.634409 -44.429216 -3.317099 -11.789183 -5.415835 -13.989882 1.643638 8.546007 28.328209 -1.973482 8.169574 -1.335952 0.061500 -1.599800 -4.400900 16.785405 9.967681 4.631947 -6.472196 -11.790756 43.537706 1.763592 -10.048978 15.007579 -0.716900 5.410900 -15.084300 -0.409667 0.824506 9.822671 2.485127 0.964665 -3.279563 -3.839885 1.755864 22.542787 1.219900 -0.093900 6.003100 -17.068235 -37.651392 40.332998 25.890474 -36.082739 -9.840253 0.229872 -1.378263 0.430694 -7.125000 0.000000 0.000000 49.219647 20.095210 32.356814 -11.705754 14.420128 -2.102917 1.134413 -0.665720 22.378927 7.125000 0.000000 0.000000 
0.951601 18.022952 1.893186 -2.572252 -44.341763 -3.593976 -11.996413 -5.827706 -12.886261 1.500058 8.303136 27.593642 -2.202406 8.926604 -1.516913 0.081900 -1.845800 -5.079800 16.461029 10.286244 4.477507 -6.660156 -12.000713 44.225755 1.487550 -9.775270 16.910283 -0.586200 4.902300 -13.630000 -0.393933 0.924158 9.335180 2.341826 1.003855 -3.116123 -3.921561 1.938127 23.426379 1.218200 -0.059400 6.171400 -15.028666 -38.228668 37.189713 25.050895 -35.335574 -9.305447 0.155006 -1.403517 1.171756 -7.125000 0.000000 0.000000 47.046948 21.615040 32.931253 -12.981140 16.269861 -2.569892 1.191944 -0.308759 19.648772 7.125000 0.000000 0.000000 
0.928458 18.047651 1.980898 -2.624857 -44.273655 -3.804166 -12.096851 -6.195974 -11.851523 1.364445 8.071737 26.891769 -2.381831 9.512282 -1.647815 0.066700 -1.666800 -4.585700 16.213213 10.543208 4.267657 -6.883960 -12.208190 44.905633 1.290766 -10.003419 19.000023 -0.455600 4.330200 -12.007600 -0.793209 1.017153 9.426122 2.042923 1.024618 -2.652003 -4.124826 2.161048 24.080086 1.143600 0.008700 6.335100 -12.477341 -38.779094 33.427686 24.315362 -34.661680 -8.851291 0.105182 -1.419552 1.853030 -7.125000 0.000000 0.000000 45.038057 23.313257 33.215508 -14.487005 18.320818 -3.157548 1.377552 0.204470 17.251950 7.125000 0.000000 0.000000 
0.902883 18.064085 2.064233 -2.441382 -44.176602 -4.085919 -12.376309 -6.580420 -10.862089 1.228183 7.844628 26.228756 -2.495685 9.898720 -2.135224 0.034900 -1.206000 -3.315700 15.801729 10.834815 3.966686 -7.114913 -12.435332 45.612427 1.074640 -10.261939 21.014562 -0.321200 3.643100 -10.074500 -0.916655 1.183412 8.959594 1.931193 1.098209 -2.508514 -4.346963 2.311160 24.945230 1.083000 0.024600 6.527000 -10.484809 -39.218865 29.698045 23.888499 -34.321101 -8.614979 0.066819 -1.427444 2.421917 -7.125000 0.000000 0.000000 42.644423 24.547974 31.616193 -15.472213 19.739396 -3.660113 1.204582 0.009993 16.590292 7.125000 0.000000 0.000000 
0.876628 18.079449 2.148444 -2.319974 -44.094176 -4.367338 -12.626633 -7.015096 -9.789604 1.086537 7.605490 25.528176 -2.612996 10.299231 -2.632972 0.016100 -0.818400 -2.249300 15.490641 11.207540 3.720995 -7.331205 -12.650887 46.340047 0.800127 -10.216044 22.782527 -0.244000 3.178500 -8.776000 -0.896589 1.333928 8.585867 1.801417 1.166042 -2.392651 -4.297596 2.431566 25.852609 1.112700 0.039400 6.743400 -8.431393 -39.502125 25.937573 23.642573 -34.161753 -8.489559 0.023092 -1.469427 2.321672 -7.125000 0.000000 0.000000 40.097985 25.678219 30.663149 -16.679730 21.451958 -4.300667 1.160295 -0.037391 15.182553 7.125000 0.000000 0.000000 
0.849304 18.095494 2.235281 -2.037856 -43.954031 -4.756889 -13.013909 -7.461754 -8.687730 0.949776 7.354064 24.805034 -2.772740 10.830851 -2.937863 0.010800 -0.670900 -1.843600 15.059366 11.560170 3.445920 -7.525611 -12.864124 47.089717 0.417461 -9.740347 24.553535 -0.235000 3.120100 -8.613200 -1.121712 1.467705 8.402219 1.714900 1.220084 -2.190285 -4.238254 2.506821 26.619785 1.125900 0.046300 6.949900 -6.096581 -39.937487 22.062275 23.111639 -33.709859 -8.186970 -0.033963 -1.503783 1.903179 -7.125000 0.000000 0.000000 37.492365 26.824043 29.549964 -17.953270 23.160049 -4.948443 1.365576 0.238447 14.172993 7.125000 0.000000 0.000000 
0.821882 18.110177 2.319978 -1.527857 -43.739788 -5.274408 -13.593697 -7.931379 -7.606261 0.824882 7.115105 24.159239 -2.871281 11.179102 -3.444952 0.004000 -0.407000 -1.118200 14.413571 11.814092 3.079353 -7.694615 -13.081568 47.850896 -0.037938 -8.914559 26.264560 -0.241000 3.159500 -8.723100 -1.070729 1.563485 7.974268 1.867444 1.265873 -2.136460 -4.465174 2.602317 27.176679 1.069300 0.045500 7.078600 -4.095215 -40.297275 18.132671 22.559551 -33.235037 -7.880443 -0.096179 -1.519122 1.692059 -7.125000 0.000000 0.000000 34.663585 27.749359 27.943052 -19.109208 24.759875 -5.646382 1.246179 0.210730 13.625037 7.125000 0.000000 0.000000 
0.792320 18.125541 2.397090 -1.346355 -43.634417 -5.544257 -13.850136 -8.231583 -6.741179 0.717735 6.921563 23.606335 -2.922043 11.370354 -3.843484 0.000300 -0.117900 -0.323900 14.149449 12.193109 2.699937 -7.877017 -13.275450 48.621216 -0.426001 -8.229632 27.755413 -0.181900 2.746800 -7.574700 -1.442448 1.662823 7.810344 1.774257 1.302630 -1.942277 -4.616528 2.690707 27.406516 0.987700 0.082200 7.126600 -1.546916 -40.269721 14.022738 22.287271 -33.034756 -7.744761 -0.150826 -1.550777 1.227081 -7.125000 0.000000 0.000000 32.083587 28.838190 26.012226 -20.213073 26.209873 -6.353765 1.089175 0.136147 13.443740 7.125000 0.000000 0.000000 
0.759453 18.134585 2.472257 -1.394683 -43.522080 -5.630588 -13.933921 -8.327818 -6.048895 0.631377 6.766372 23.128913 -2.986192 11.589409 -3.925408 0.001200 -0.227000 -0.623600 14.096481 12.528160 2.331962 -8.070698 -13.455288 49.406362 -0.683003 -7.748748 28.685853 -0.091100 1.947200 -5.359700 -1.550002 1.826296 7.512131 1.626982 1.371953 -1.785026 -4.622472 2.648610 27.556213 0.947400 0.067200 7.137400 0.889975 -40.400078 9.972537 21.968993 -32.793359 -7.585374 -0.197309 -1.582284 0.621799 -7.125000 0.000000 0.000000 29.319416 29.591473 23.991875 -21.321113 27.656861 -7.078267 1.040513 0.182100 13.229813 7.125000 0.000000 0.000000 
0.727655 18.138280 2.548591 -1.307742 -43.255998 -5.749743 -14.112463 -8.382943 -5.415074 0.543367 6.599858 22.631984 -3.014791 11.684367 -3.888122 0.003500 -0.383200 -1.053000 13.872077 12.645474 1.831938 -8.272724 -13.641708 50.193338 -0.808664 -7.532126 29.087650 -0.048800 1.425000 -3.919000 -1.766393 1.947208 7.130334 1.506430 1.418349 -1.678968 -4.284476 2.584049 27.622516 1.011800 0.074700 7.116200 3.254397 -40.542009 5.927645 21.579995 -32.475832 -7.383147 -0.257884 -1.614205 -0.078853 -7.125000 0.000000 0.000000 26.455456 30.143717 21.776438 -22.416821 29.072527 -7.828625 1.006513 0.247356 13.061242 7.125000 0.000000 0.000000 
